<?xml version="1.0" encoding="UTF-8"?> <svg xmlns="http://www.w3.org/2000/svg" width="172" height="69" viewBox="0 0 172 69" fill="none"><g clip-path="url(#clip0_2_95)"><path d="M95.2594 34.6052C96.0012 34.6052 96.6919 34.3303 97.1821 33.9049C97.6766 33.4795 97.9623 32.9252 97.9623 32.3667C97.9623 31.546 97.5701 30.966 96.888 30.3859C96.2101 29.8102 95.2594 29.3032 94.313 28.7317C93.4263 28.1903 92.3776 27.6404 91.5249 26.8283C90.6681 26.0205 90.0201 24.8948 90.0286 23.348C90.0286 22.0117 90.5999 20.8001 91.5718 19.9365C92.5438 19.0728 93.908 18.5615 95.4897 18.5615C97.7491 18.5615 99.2966 19.1201 100.124 19.4982L100.524 19.6787L99.4927 22.1492L99.0749 21.9688C98.3587 21.6594 97.3441 21.1868 95.5152 21.1868C93.5499 21.2255 93.1236 22.1492 93.0895 22.914C93.098 23.6745 93.3965 24.1429 94.0189 24.68C94.6413 25.2042 95.5707 25.7112 96.645 26.3771C97.5274 26.94 98.6486 27.5329 99.5737 28.3923C100.503 29.2473 101.236 30.4246 101.228 32.0401C101.202 35.1466 98.1882 37.2348 95.1571 37.2348H95.1188C92.1175 37.2348 90.472 36.3411 89.7813 36.0145L89.3721 35.8255L90.4847 33.428L90.8812 33.5955C91.5164 33.8619 92.9616 34.6052 95.2594 34.6095" fill="#333333"></path><path d="M117.117 36.8954L115.437 32.255H109.775L108.057 36.6075L107.947 36.8954H104.937L112.197 18.8365H113.83L120.446 36.8954H117.121H117.117ZM110.769 29.7372H114.52L112.708 24.796L110.764 29.7372H110.769Z" fill="#333333"></path><path d="M131.875 37.2305C129.68 37.2305 127.932 36.6676 126.73 35.5934C125.523 34.5236 124.909 32.9639 124.914 31.1378V18.8923H128.077V30.9831C128.077 32.3108 128.401 33.1658 129.01 33.7201C129.62 34.2744 130.618 34.5837 132.101 34.5837C134.736 34.5536 135.917 32.9596 135.951 30.9874V18.8966H138.858V30.9874C138.858 32.0702 138.513 33.6041 137.451 34.9103C136.398 36.2165 134.608 37.2305 131.897 37.2305H131.871H131.875Z" fill="#333333"></path><path d="M145.897 36.8953V18.8881H149.06V34.2701H155.344V36.8953H145.897Z" fill="#333333"></path><path d="M158.025 18.8923V19.3435V21.5176H163.418V36.8953H166.581V21.5176H172V18.8923H158.025Z" fill="#333333"></path><path d="M99.3691 57.1154C98.5847 57.6353 97.4464 58.211 95.2381 58.211C91.5335 58.211 89.3081 55.0873 89.3081 52.0023C89.3081 48.9173 91.5335 45.7765 95.2381 45.7765C97.5871 45.7765 98.623 46.4038 99.1176 46.6917L98.6529 47.8389C98.2607 47.6584 97.1949 47.0311 95.3063 47.0311C92.936 47.0311 91.0134 49.2009 91.0134 52.0023C91.0134 54.8038 93.0255 56.9564 95.4811 56.9564C97.4592 56.9564 98.2948 56.4193 98.7936 56.1142L99.3648 57.1197L99.3691 57.1154Z" fill="#333333"></path><path d="M114.341 52.0023C114.341 55.7705 111.864 58.211 108.556 58.211C105.248 58.211 102.771 55.8049 102.771 52.0023C102.771 48.449 105.052 45.7765 108.556 45.7765C112.278 45.7765 114.341 48.3588 114.341 52.0023ZM104.476 52.0023C104.476 55.0186 106.079 57.0466 108.552 57.0466C111.024 57.0466 112.627 55.0186 112.627 52.0023C112.627 48.9861 111.024 46.9409 108.552 46.9409C106.079 46.9409 104.476 48.9861 104.476 52.0023Z" fill="#333333"></path><path d="M120.378 56.776H124.773V57.979H118.792V46.0085H120.378V56.776Z" fill="#333333"></path><path d="M130.153 56.776H134.553V57.979H128.572V46.0085H130.157V56.776H130.153Z" fill="#333333"></path><path d="M145.053 57.979H138.343V46.0085H144.84V47.2116H139.924V51.2118H143.522V52.4149H139.924V56.776H145.053V57.979Z" fill="#333333"></path><path d="M154.704 58.211C150.983 58.211 148.685 55.1776 148.685 52.0023C148.685 48.8271 151 45.7765 154.704 45.7765C157.002 45.7765 158.14 46.3308 158.605 46.5671L158.145 47.7315C157.701 47.551 156.614 47.0311 154.781 47.0311C152.091 47.0311 150.403 49.5962 150.403 52.0023C150.403 54.9456 152.432 56.9564 154.926 56.9564C156.405 56.9564 156.972 56.7072 157.437 56.5611V52.8273H159.057V57.2615C158.524 57.5321 157.275 58.211 154.713 58.211H154.704Z" fill="#333333"></path><path d="M170.103 57.979H163.388V46.0085H169.885V47.2116H164.97V51.2118H168.568V52.4149H164.97V56.776H170.099V57.979H170.103Z" fill="#333333"></path><path d="M51.9803 16.4046L36.8846 0H36.8804H36.8761L21.7846 16.4003H21.7804C19.8534 18.5014 19.2182 21.5477 20.1518 24.289C20.348 24.8261 20.608 25.3761 20.9363 25.926C21.1793 26.3127 21.4436 26.6736 21.7377 27.0045H21.7292L25.4637 31.0304L25.5149 30.9617L25.1269 30.5449H25.1312C24.901 30.2828 24.6963 29.9993 24.5088 29.6985C24.253 29.2688 24.0526 28.8392 23.8991 28.4224C23.1744 26.2826 23.6689 23.9109 25.1653 22.2696L36.8761 9.48272L48.5869 22.2653C50.0832 23.9066 50.5778 26.2783 49.853 28.4181C49.6996 28.8392 49.4992 29.2645 49.2434 29.6942C49.0516 29.995 48.8512 30.2785 48.621 30.5363H48.6253L48.2373 30.9574L48.2885 31.0262L52.023 27.0045H52.0144C52.3086 26.6693 52.5729 26.3084 52.8159 25.9217C53.1442 25.3675 53.4 24.8218 53.6003 24.2847C54.5339 21.5434 53.8987 18.4971 51.9718 16.4003L51.9803 16.4046Z" fill="#8DA265"></path><path d="M44.004 27.5158L36.7184 19.61L29.4327 27.5158C28.5161 28.517 28.2134 29.9692 28.6568 31.2754C28.7506 31.5332 28.8742 31.791 29.0319 32.0531C29.1471 32.2379 29.2749 32.4097 29.4156 32.5687L36.7312 40.4402L44.0467 32.5687C44.1874 32.4097 44.311 32.2379 44.4304 32.0531C44.5881 31.791 44.7075 31.5289 44.8012 31.2754C45.2446 29.9692 44.9419 28.517 44.0254 27.5201L44.004 27.5158Z" fill="#58AFE2"></path><path d="M51.8054 68.8067H51.8097L73.4408 63.8011V63.7925H73.4451L66.8671 42.4295C66.023 39.6969 63.7251 37.6173 60.8987 37.0673C60.336 36.9728 59.7391 36.9255 59.0996 36.9341C58.6478 36.9556 58.2001 37.0028 57.7696 37.0974V37.0888L52.4492 38.3434L52.4833 38.425L53.0332 38.2961V38.3047C53.37 38.2317 53.7153 38.1973 54.0692 38.1801C54.5679 38.1715 55.0326 38.2102 55.4717 38.2875C57.6715 38.7215 59.4705 40.3371 60.1313 42.4596L65.2854 59.0705L48.4504 62.9246C46.2975 63.4144 44.0082 62.6625 42.5289 60.9653C42.2433 60.6216 41.9789 60.2349 41.7317 59.7966C41.5654 59.483 41.4247 59.1607 41.3182 58.8342H41.3096L41.1434 58.2928L41.0581 58.3014L42.6525 63.5691H42.661C42.7975 63.9858 42.9808 64.3983 43.1897 64.8022C43.5009 65.3651 43.8419 65.8635 44.2086 66.3017C46.1014 68.4844 49.0387 69.4469 51.8012 68.811L51.8054 68.8067Z" fill="#8DA265"></path><path d="M46.2251 56.2991L56.6569 53.8758L53.4937 43.5681C53.093 42.2662 51.9973 41.278 50.6502 41.0159C50.3816 40.9687 50.096 40.9472 49.7933 40.9515C49.5802 40.9601 49.367 40.9858 49.1624 41.0288L38.7476 43.4908L41.8682 53.8071C41.9321 54.0047 42.0174 54.2024 42.1197 54.3957C42.2689 54.6621 42.4309 54.9027 42.6014 55.1089C43.5052 56.1487 44.9035 56.6085 46.2208 56.3034L46.2251 56.2991Z" fill="#58AFE2"></path><path d="M21.6439 68.8067H21.6396L0.00426312 63.8011V63.7925H0L6.578 42.4295C7.4221 39.6969 9.71992 37.6173 12.5464 37.0673C13.1091 36.9728 13.7059 36.9255 14.3454 36.9341C14.7973 36.9556 15.2449 37.0028 15.6755 37.0974V37.0888L20.9959 38.3434L20.9618 38.425L20.4118 38.2961V38.3047C20.0751 38.2317 19.7297 38.1973 19.3759 38.1801C18.8771 38.1715 18.4124 38.2102 17.9733 38.2875C15.7736 38.7215 13.9745 40.3371 13.3137 42.4596L8.15962 59.0705L24.9947 62.9246C27.1476 63.4144 29.4369 62.6625 30.9162 60.9653C31.2018 60.6216 31.4661 60.2349 31.7134 59.7966C31.8796 59.483 32.0203 59.1607 32.1269 58.8342H32.1354L32.3017 58.2928L32.387 58.3014L30.7925 63.5691H30.784C30.6476 63.9858 30.4643 64.3983 30.2554 64.8022C29.9442 65.3651 29.6031 65.8635 29.2365 66.3017C27.3437 68.4844 24.4064 69.4469 21.6439 68.811V68.8067Z" fill="#8DA265"></path><path d="M27.2199 56.2991L16.7881 53.8758L19.9513 43.5681C20.3521 42.2662 21.4477 41.278 22.7948 41.0159C23.0634 40.9687 23.349 40.9472 23.6517 40.9515C23.8649 40.9601 24.078 40.9858 24.2827 41.0288L34.6975 43.4908L31.5769 53.8071C31.5129 54.0047 31.4277 54.2024 31.3253 54.3957C31.1761 54.6621 31.0141 54.9027 30.8436 55.1089C29.9398 56.1487 28.5415 56.6085 27.2242 56.3034L27.2199 56.2991Z" fill="#58AFE2"></path></g><defs><clipPath id="clip0_2_95"><rect width="172" height="69" fill="white"></rect></clipPath></defs></svg> 