<svg width="128" height="186" viewBox="0 0 128 186" fill="none" xmlns="http://www.w3.org/2000/svg">
<path d="M9.65652 149.524C10.795 149.524 11.8549 149.105 12.6073 148.457C13.3663 147.81 13.8047 146.966 13.8047 146.115C13.7981 144.865 13.2027 143.982 12.1559 143.099C11.1156 142.222 9.65652 141.45 8.204 140.58C6.84309 139.755 5.23355 138.918 3.92499 137.681C2.60987 136.451 1.61536 134.737 1.62845 132.382C1.62845 130.347 2.50519 128.502 3.99696 127.186C5.48873 125.871 7.58243 125.093 10.0098 125.093C13.4775 125.093 15.8526 125.943 17.1219 126.519L17.7369 126.794L16.1536 130.556L15.5124 130.281C14.4132 129.81 12.856 129.09 10.0491 129.09C7.03284 129.149 6.37855 130.556 6.32621 131.721C6.33929 132.879 6.79729 133.592 7.75255 134.41C8.70126 135.208 10.1341 135.98 11.7829 136.994C13.1373 137.851 14.8581 138.754 16.2779 140.063C17.7042 141.365 18.8296 143.158 18.8165 145.618C18.7772 150.348 14.1515 153.528 9.49949 153.528H9.4406C4.83444 153.528 2.3089 152.167 1.24896 151.67L0.62085 151.382L2.32853 147.731L2.93702 147.986C3.9119 148.392 6.12992 149.524 9.65652 149.53" fill="white"/>
<path d="M43.2082 153.018L40.6304 145.951H31.9415L29.3047 152.579L29.128 153.018H24.5088L35.6447 125.518H38.1506L48.3051 153.018H43.2017H43.2082ZM33.4659 142.111H39.2236L36.4429 134.586L33.4594 142.111H33.4659Z" fill="white"/>
<path d="M65.8531 153.522C62.4835 153.522 59.8009 152.664 57.9559 151.029C56.1042 149.4 55.1621 147.024 55.1686 144.244V125.597H60.0234V144.008C60.0234 146.03 60.5207 147.332 61.4563 148.176C62.3919 149.02 63.9229 149.491 66.1998 149.491C70.2433 149.445 72.0557 147.018 72.108 144.015V125.603H76.5703V144.015C76.5703 145.664 76.0403 147.999 74.4111 149.988C72.795 151.977 70.047 153.522 65.8858 153.522H65.8465H65.8531Z" fill="white"/>
<path d="M87.3724 153.018V125.597H92.2272V149.02H101.871V153.018H87.3724Z" fill="white"/>
<path d="M105.993 125.597V126.29V129.594H114.27V153.011H119.125V129.594H127.441V125.597H105.993Z" fill="white"/>
<path d="M15.9704 183.802C14.7665 184.593 13.0196 185.47 9.63039 185.47C3.94466 185.47 0.529297 180.713 0.529297 176.016C0.529297 171.318 3.94466 166.535 9.63039 166.535C13.2355 166.535 14.8254 167.49 15.5844 167.929L14.8712 169.676C14.2693 169.401 12.6336 168.446 9.73508 168.446C6.1038 168.446 3.15298 171.75 3.15298 176.016C3.15298 180.282 6.2412 183.56 10.0099 183.56C13.0458 183.56 14.3282 182.742 15.0937 182.277L15.9704 183.808V183.802Z" fill="white"/>
<path d="M38.9489 176.016C38.9489 181.754 35.1475 185.47 30.0703 185.47C24.993 185.47 21.1917 181.806 21.1917 176.016C21.1917 170.605 24.6921 166.535 30.0703 166.535C35.7822 166.535 38.9489 170.467 38.9489 176.016ZM23.8088 176.016C23.8088 180.609 26.2689 183.697 30.0637 183.697C33.8586 183.697 36.3187 180.609 36.3187 176.016C36.3187 171.423 33.8586 168.308 30.0637 168.308C26.2689 168.308 23.8088 171.423 23.8088 176.016Z" fill="white"/>
<path d="M48.2069 183.285H54.9591V185.117H45.7795V166.889H48.2135V183.285H48.2069Z" fill="white"/>
<path d="M63.2097 183.285H69.962V185.117H60.7823V166.889H63.2163V183.285H63.2097Z" fill="white"/>
<path d="M86.0835 185.117H75.785V166.889H85.7563V168.721H78.2124V174.812H83.7346V176.644H78.2124V183.285H86.0835V185.117Z" fill="white"/>
<path d="M100.89 185.47C95.1781 185.47 91.6515 180.851 91.6515 176.016C91.6515 171.181 95.2043 166.535 100.89 166.535C104.417 166.535 106.164 167.379 106.877 167.739L106.17 169.512C105.49 169.237 103.821 168.446 101.008 168.446C96.8792 168.446 94.2883 172.352 94.2883 176.016C94.2883 180.498 97.4026 183.56 101.23 183.56C103.501 183.56 104.371 183.18 105.084 182.958V177.272H107.57V184.024C106.752 184.436 104.835 185.47 100.903 185.47H100.89Z" fill="white"/>
<path d="M124.529 185.117H114.224V166.889H124.196V168.721H116.652V174.812H122.174V176.644H116.652V183.285H124.523V185.117H124.529Z" fill="white"/>
<path d="M87.1697 24.9806L64.008 0H64.0015H63.9949L40.8333 24.974H40.8267C37.8694 28.1735 36.8945 32.8124 38.3274 36.9867C38.6283 37.8045 39.0274 38.6355 39.5312 39.4795C39.9042 40.0684 40.3098 40.618 40.7613 41.1218H40.7482L46.4797 47.2524L46.5583 47.1477L45.9629 46.5131H45.9694C45.6161 46.114 45.302 45.6821 45.0141 45.2241C44.6216 44.5698 44.3141 43.9221 44.0785 43.2809C42.9662 40.0226 43.7252 36.4044 46.0217 33.9181L63.9949 14.4466L81.9681 33.9116C84.2647 36.4109 85.0236 40.0226 83.9113 43.2809C83.6758 43.9221 83.3683 44.5698 82.9757 45.2241C82.6813 45.6821 82.3738 46.114 82.0205 46.5065H82.027L81.4316 47.1477L81.5101 47.2524L87.2417 41.1283H87.2286C87.68 40.618 88.0857 40.0618 88.4586 39.4795C88.9624 38.6355 89.355 37.8045 89.6625 36.9867C91.0954 32.8124 90.1205 28.1735 87.1631 24.9806H87.1697Z" fill="white"/>
<path d="M74.9346 41.9002L63.7529 29.8613L52.5712 41.9002C51.1645 43.4246 50.6999 45.6361 51.3804 47.6251C51.5243 48.0177 51.714 48.4103 51.9561 48.8094C52.1328 49.0907 52.3291 49.3525 52.545 49.5945L63.7725 61.581L75 49.5945C75.2159 49.3525 75.4057 49.0907 75.5889 48.8094C75.831 48.4103 76.0142 48.0112 76.1581 47.6251C76.8386 45.6361 76.374 43.4246 74.9673 41.9067L74.9346 41.9002Z" fill="white"/>
<path d="M86.908 104.777H86.9145L120.113 97.1546V97.1416H120.119L110.024 64.6105C108.728 60.4493 105.202 57.2825 100.864 56.4451C100 56.3011 99.0842 56.2292 98.1028 56.2422C97.4092 56.275 96.7222 56.3469 96.0614 56.4909V56.4778L87.8959 58.3883L87.9483 58.5061L88.7923 58.3098V58.3229C89.3092 58.2116 89.8392 58.1593 90.3822 58.1331C91.1477 58.12 91.8609 58.1789 92.5348 58.2967C95.9109 58.9575 98.672 61.4176 99.6861 64.6498L107.596 89.9444L81.7587 95.8134C78.4546 96.5592 74.9411 95.4142 72.6707 92.8233C72.2324 92.2998 71.8267 91.711 71.4472 91.0436C71.1921 90.566 70.9761 90.0753 70.8126 89.5715H70.7995L70.5443 88.7471L70.4135 88.7602L72.8605 96.7817H72.8736C73.0829 97.4164 73.3643 98.0445 73.6849 98.6595C74.1625 99.5166 74.6859 100.276 75.2486 100.943C78.1536 104.267 82.6617 105.732 86.9014 104.764L86.908 104.777Z" fill="white"/>
<path d="M78.3433 85.7307L94.3537 82.0406L89.4989 66.3443C88.8839 64.3618 87.2023 62.857 85.1348 62.4578C84.7226 62.3859 84.2842 62.3532 83.8197 62.3597C83.4926 62.3728 83.1654 62.412 82.8514 62.4775L66.8672 66.2265L71.6565 81.9359C71.7547 82.2369 71.8856 82.5378 72.0426 82.8323C72.2716 83.2379 72.5202 83.6043 72.7819 83.9184C74.169 85.5017 76.3151 86.2018 78.3368 85.7373L78.3433 85.7307Z" fill="white"/>
<path d="M40.6108 104.777H40.6042L7.40583 97.1546V97.1416H7.39929L17.4949 64.6105C18.7904 60.4493 22.317 57.2825 26.6549 56.4451C27.5185 56.3011 28.4345 56.2292 29.416 56.2422C30.1095 56.275 30.7965 56.3469 31.4573 56.4909V56.4778L39.6228 58.3883L39.5705 58.5061L38.7264 58.3098V58.3229C38.2095 58.2116 37.6796 58.1593 37.1365 58.1331C36.371 58.12 35.6578 58.1789 34.9839 58.2967C31.6078 58.9575 28.8467 61.4176 27.8326 64.6498L19.9223 89.9444L45.76 95.8134C49.0641 96.5592 52.5776 95.4142 54.848 92.8233C55.2864 92.2998 55.692 91.711 56.0715 91.0436C56.3267 90.566 56.5426 90.0753 56.7062 89.5715H56.7192L56.9744 88.7471L57.1053 88.7602L54.6583 96.7817H54.6452C54.4358 97.4164 54.1545 98.0445 53.8339 98.6595C53.3562 99.5166 52.8328 100.276 52.2701 100.943C49.3651 104.267 44.8571 105.732 40.6173 104.764L40.6108 104.777Z" fill="white"/>
<path d="M49.1754 85.7312L33.165 82.0411L38.0198 66.3448C38.6349 64.3623 40.3164 62.8574 42.3839 62.4583C42.7961 62.3864 43.2345 62.3536 43.699 62.3602C44.0262 62.3733 44.3533 62.4125 44.6674 62.478L60.6515 66.227L55.8622 81.9364C55.764 82.2374 55.6332 82.5383 55.4761 82.8327C55.2471 83.2384 54.9985 83.6048 54.7368 83.9189C53.3497 85.5022 51.2037 86.2023 49.1819 85.7378L49.1754 85.7312Z" fill="white"/>
</svg>
