<?xml version="1.0" encoding="UTF-8"?> <svg xmlns="http://www.w3.org/2000/svg" version="1.1" viewBox="0 0 124 124"><defs><style> .cls-1 { fill: #8da265; } .cls-2 { fill: #58afe2; } </style></defs><!-- Generator: Adobe Illustrator 28.7.1, SVG Export Plug-In . SVG Version: 1.2.0 Build 142) --><g><g id="Layer_1"><g><g><path class="cls-1" d="M87.2,32.4h0S62.3,5.5,62.3,5.5h0s0,0,0,0l-24.9,26.8h0c-3.2,3.4-4.2,8.4-2.7,12.9.3.9.8,1.8,1.3,2.7.4.6.8,1.2,1.3,1.8h0s6.2,6.6,6.2,6.6h0c0-.1-.6-.8-.6-.8h0c-.4-.4-.7-.9-1-1.4-.4-.7-.7-1.4-1-2.1-1.2-3.5-.4-7.4,2.1-10.1h0s19.3-20.9,19.3-20.9l19.3,20.9h0c2.5,2.7,3.3,6.6,2.1,10.1-.3.7-.6,1.4-1,2.1-.3.5-.6,1-1,1.4h0s-.6.7-.6.7h0c0,.1,6.2-6.5,6.2-6.5h0c.5-.5.9-1.1,1.3-1.8.5-.9,1-1.8,1.3-2.7,1.5-4.5.5-9.5-2.7-12.9Z"></path><path class="cls-2" d="M74,50.6h0s-12-12.9-12-12.9l-12,12.9h0c-1.5,1.6-2,4-1.3,6.2.2.4.4.8.6,1.3.2.3.4.6.6.8h0s12.1,12.9,12.1,12.9l12.1-12.9h0c.2-.3.4-.5.6-.8.3-.4.5-.9.6-1.3.7-2.1.2-4.5-1.3-6.1Z"></path></g><g><path class="cls-1" d="M86.9,118.2h0s35.7-8.2,35.7-8.2h0s0,0,0,0l-10.9-35h0c-1.4-4.5-5.2-7.9-9.8-8.8-.9-.2-1.9-.2-3-.2-.7,0-1.5.1-2.2.3h0s-8.8,2-8.8,2h0c0,.1.9,0,.9,0h0c.6-.1,1.1-.2,1.7-.2.8,0,1.6,0,2.3.2,3.6.7,6.6,3.4,7.7,6.8h0s8.5,27.2,8.5,27.2l-27.8,6.3h0c-3.6.8-7.3-.4-9.8-3.2-.5-.6-.9-1.2-1.3-1.9-.3-.5-.5-1-.7-1.6h0s-.3-.9-.3-.9h-.1s2.6,8.6,2.6,8.6h0c.2.7.5,1.4.9,2,.5.9,1.1,1.7,1.7,2.5,3.1,3.6,8,5.1,12.5,4.1Z"></path><path class="cls-2" d="M77.7,97.7h0s17.2-4,17.2-4l-5.2-16.9h0c-.7-2.1-2.5-3.8-4.7-4.2-.4,0-.9-.1-1.4-.1-.4,0-.7,0-1,.1h0s-17.2,4-17.2,4l5.1,16.9h0c.1.3.2.6.4,1,.2.4.5.8.8,1.2,1.5,1.7,3.8,2.5,6,2Z"></path></g><g><path class="cls-1" d="M37.1,118.2h0S1.4,110,1.4,110h0s0,0,0,0l10.9-35h0c1.4-4.5,5.2-7.9,9.8-8.8.9-.2,1.9-.2,3-.2.7,0,1.5.1,2.2.3h0s8.8,2,8.8,2h0c0,.1-.9,0-.9,0h0c-.6-.1-1.1-.2-1.7-.2-.8,0-1.6,0-2.3.2-3.6.7-6.6,3.4-7.7,6.8h0s-8.5,27.2-8.5,27.2l27.8,6.3h0c3.6.8,7.3-.4,9.8-3.2.5-.6.9-1.2,1.3-1.9.3-.5.5-1,.7-1.6h0s.3-.9.3-.9h.1s-2.6,8.6-2.6,8.6h0c-.2.7-.5,1.4-.9,2-.5.9-1.1,1.7-1.7,2.5-3.1,3.6-8,5.1-12.5,4.1Z"></path><path class="cls-2" d="M46.3,97.7h0s-17.2-4-17.2-4l5.2-16.9h0c.7-2.1,2.5-3.8,4.7-4.2.4,0,.9-.1,1.4-.1.4,0,.7,0,1,.1h0s17.2,4,17.2,4l-5.1,16.9h0c-.1.3-.2.6-.4,1-.2.4-.5.8-.8,1.2-1.5,1.7-3.8,2.5-6,2Z"></path></g></g></g></g></svg> 